<?xml version="1.0" encoding="utf-8"?>
<!-- Generator: Adobe Illustrator 21.0.2, SVG Export Plug-In . SVG Version: 6.00 Build 0)  -->
<svg version="1.1" id="Слой_1" xmlns="http://www.w3.org/2000/svg" xmlns:xlink="http://www.w3.org/1999/xlink" x="0px" y="0px"
	 viewBox="0 0 376 340" enable-background="new 0 0 376 340" xml:space="preserve">
<g>
	<path d="M370,0H6C2.7,0,0,2.7,0,6v328c0,3.3,2.7,6,6,6h364c3.3,0,6-2.7,6-6v-64c0-3.3-2.7-6-6-6s-6,2.7-6,6v58H12V60h352v186
		c0,3.3,2.7,6,6,6s6-2.7,6-6V6C376,2.7,373.3,0,370,0L370,0z M12,12h222v36H12V12z M246,48V12h118v36H246z M246,48"/>
	<path d="M305.2,23.6c-3.5,0-6.4,2.9-6.4,6.4s2.9,6.4,6.4,6.4c3.5,0,6.4-2.9,6.4-6.4S308.7,23.6,305.2,23.6L305.2,23.6z M305.2,23.6
		"/>
	<path d="M272.4,23.6c-3.5,0-6.4,2.9-6.4,6.4s2.9,6.4,6.4,6.4c3.5,0,6.4-2.9,6.4-6.4S275.9,23.6,272.4,23.6L272.4,23.6z M272.4,23.6
		"/>
	<path d="M338,23.6c-3.5,0-6.4,2.9-6.4,6.4s2.9,6.4,6.4,6.4c3.5,0,6.4-2.9,6.4-6.4S341.5,23.6,338,23.6L338,23.6z M338,23.6"/>
	<path d="M119,162.8c2.4-0.3,4.3-2,5-4.2l13.8-46.1c0.9-3.2-0.9-6.5-4-7.5c-3.2-1-6.5,0.9-7.5,4l-9.9,33l-9.5-15.9
		c-1.1-1.8-3-2.9-5.1-2.9c-2.1,0-4.1,1.1-5.1,2.9L87,142.1l-9.9-33c-0.9-3.2-4.3-5-7.5-4c-3.2,1-5,4.3-4,7.5l13.8,46.1
		c0.7,2.3,2.6,3.9,5,4.2c0.3,0,0.5,0,0.7,0c2.1,0,4.1-1.1,5.1-2.9l11.4-19l11.4,19C114.3,162,116.6,163.1,119,162.8L119,162.8z
		 M119,162.8"/>
	<path d="M165.1,162.8c0.3,0,0.5,0,0.7,0c2.1,0,4.1-1.1,5.1-2.9l11.4-19l11.4,19c1.2,2,3.5,3.2,5.9,2.9c2.4-0.3,4.3-2,5-4.2
		l13.8-46.1c1-3.2-0.8-6.5-4-7.5c-3.2-0.9-6.5,0.9-7.5,4l-9.9,33l-9.5-15.9c-1.1-1.8-3-2.9-5.1-2.9c-2.1,0-4.1,1.1-5.1,2.9
		l-9.5,15.9l-9.9-33c-0.9-3.2-4.3-5-7.5-4c-3.2,0.9-5,4.3-4,7.5l13.8,46.1C160.8,160.8,162.7,162.5,165.1,162.8L165.1,162.8z
		 M165.1,162.8"/>
	<path d="M295.1,105c-3.2-0.9-6.5,0.9-7.5,4l-9.9,33l-9.5-15.9c-1.1-1.8-3-2.9-5.1-2.9c-2.1,0-4.1,1.1-5.1,2.9l-9.5,15.9l-9.9-33
		c-0.9-3.2-4.3-5-7.5-4c-3.2,1-5,4.3-4,7.5l13.8,46.1c0.7,2.3,2.6,3.9,5,4.2c2.4,0.3,4.7-0.8,5.9-2.9l11.4-19l11.4,19
		c1.1,1.8,3.1,2.9,5.1,2.9c0.2,0,0.5,0,0.7,0c2.4-0.3,4.3-2,5-4.2l13.8-46.1C300.1,109.3,298.3,106,295.1,105L295.1,105z M295.1,105
		"/>
	<path d="M109.4,196.8c0-3.3-2.7-6-6-6h-32c-3.3,0-6,2.7-6,6v32c0,3.3,2.7,6,6,6h32c3.3,0,6-2.7,6-6V196.8z M97.4,222.8h-20v-20h20
		V222.8z M97.4,222.8"/>
	<path d="M103.4,246.8h-32c-3.3,0-6,2.7-6,6v32c0,3.3,2.7,6,6,6h32c3.3,0,6-2.7,6-6v-32C109.4,249.5,106.7,246.8,103.4,246.8
		L103.4,246.8z M97.4,278.8h-20v-20h20V278.8z M97.4,278.8"/>
	<path d="M293.4,206.8h-24c-3.3,0-6,2.7-6,6c0,3.3,2.7,6,6,6h24c3.3,0,6-2.7,6-6C299.4,209.5,296.7,206.8,293.4,206.8L293.4,206.8z
		 M293.4,206.8"/>
	<path d="M245.4,206.8h-118c-3.3,0-6,2.7-6,6c0,3.3,2.7,6,6,6h118c3.3,0,6-2.7,6-6C251.4,209.5,248.7,206.8,245.4,206.8L245.4,206.8
		z M245.4,206.8"/>
	<path d="M293.4,262.8h-24c-3.3,0-6,2.7-6,6c0,3.3,2.7,6,6,6h24c3.3,0,6-2.7,6-6C299.4,265.5,296.7,262.8,293.4,262.8L293.4,262.8z
		 M293.4,262.8"/>
	<path d="M245.4,262.8h-118c-3.3,0-6,2.7-6,6c0,3.3,2.7,6,6,6h118c3.3,0,6-2.7,6-6C251.4,265.5,248.7,262.8,245.4,262.8L245.4,262.8
		z M245.4,262.8"/>
</g>
</svg>
