<?xml version="1.0" encoding="iso-8859-1"?>
<!-- Generator: Adobe Illustrator 21.0.2, SVG Export Plug-In . SVG Version: 6.00 Build 0)  -->
<svg version="1.1" id="Layer_1" xmlns="http://www.w3.org/2000/svg" xmlns:xlink="http://www.w3.org/1999/xlink" x="0px" y="0px"
	 viewBox="11 137 392 520" enable-background="new 11 137 392 520" xml:space="preserve">
<path d="M398.933,244.629c-0.034-3.076-1.224-6.09-3.485-8.352l-91.765-91.765c-0.004-0.004-0.007-0.005-0.011-0.008
	c-2.167-2.165-5.161-3.503-8.466-3.503H40.278c-13.917,0-25.237,11.32-25.237,25.237v461.525c0,13.916,11.32,25.237,25.237,25.237
	h333.444c13.916,0,25.237-11.32,25.237-25.237V244.753C398.96,244.709,398.937,244.672,398.933,244.629z M308.457,232.765
	c-0.695,0-1.262-0.567-1.262-1.262v-49.572l50.834,50.834H308.457z M373.722,629.024H40.278c-0.695,0-1.261-0.566-1.261-1.261
	V166.237c0-0.695,0.566-1.261,1.261-1.261h242.94v66.527c0,13.916,11.322,25.239,25.239,25.239h66.527v371.021
	C374.983,628.458,374.418,629.024,373.722,629.024z"/>
<path d="M313.088,305.014H100.912c-6.62,0-11.988,5.367-11.988,11.988c0,6.62,5.368,11.988,11.988,11.988h212.175
	c6.62,0,11.988-5.368,11.988-11.988C325.076,310.381,319.707,305.014,313.088,305.014z"/>
<path d="M313.088,377.353H100.912c-6.62,0-11.988,5.368-11.988,11.988c0,6.62,5.368,11.988,11.988,11.988h212.175
	c6.62,0,11.988-5.368,11.988-11.988C325.076,382.721,319.707,377.353,313.088,377.353z"/>
<path d="M313.088,449.691H100.912c-6.62,0-11.988,5.368-11.988,11.988c0,6.621,5.368,11.988,11.988,11.988h212.175
	c6.62,0,11.988-5.367,11.988-11.988C325.076,455.06,319.707,449.691,313.088,449.691z"/>
<path d="M207,522.031H100.912c-6.62,0-11.988,5.368-11.988,11.988c0,6.621,5.368,11.988,11.988,11.988H207
	c6.62,0,11.988-5.367,11.988-11.988C218.988,527.398,213.62,522.031,207,522.031z"/>
</svg>
