<?xml version="1.0" encoding="utf-8"?>
<!-- Generator: Adobe Illustrator 21.0.2, SVG Export Plug-In . SVG Version: 6.00 Build 0)  -->
<svg version="1.1" id="Шар_1" xmlns="http://www.w3.org/2000/svg" xmlns:xlink="http://www.w3.org/1999/xlink" x="0px" y="0px"
	 viewBox="0 0 189.5 127.8" enable-background="new 0 0 189.5 127.8" xml:space="preserve">
<g>
	<path d="M94.7,89.9c-0.8,0-1.5-0.3-2.1-0.8L26.2,30.6c-0.6-0.6-1-1.3-1.1-2.2c-0.1-0.8,0.2-1.7,0.8-2.3c0.6-0.7,1.5-1.1,2.4-1.1
		c0.8,0,1.5,0.3,2.1,0.8l64.3,56.7L159,25.9c0.6-0.5,1.3-0.8,2.1-0.8c0.9,0,1.8,0.4,2.4,1.1c1.2,1.3,1,3.3-0.3,4.5L96.8,89.2
		C96.2,89.7,95.5,89.9,94.7,89.9z"/>
	<path d="M16.3,126.6c-8.4,0-15.2-6.8-15.2-15.2V16.3c0-8.4,6.8-15.2,15.2-15.2h156.8c8.4,0,15.2,6.8,15.2,15.2v95.2
		c0,8.4-6.8,15.2-15.2,15.2H16.3z M16.3,7.4c-4.9,0-8.8,4-8.8,8.8v95.2c0,4.9,4,8.8,8.8,8.8h156.8c4.9,0,8.8-4,8.8-8.8V16.3
		c0-4.9-4-8.8-8.8-8.8H16.3z"/>
</g>
</svg>
