<?xml version="1.0" encoding="utf-8"?>
<!-- Generator: Adobe Illustrator 21.0.2, SVG Export Plug-In . SVG Version: 6.00 Build 0)  -->
<svg version="1.1" id="Layer_1" xmlns="http://www.w3.org/2000/svg" xmlns:xlink="http://www.w3.org/1999/xlink" x="0px" y="0px"
	 viewBox="0 0 48.8 37.4" enable-background="new 0 0 48.8 37.4" xml:space="preserve">
<g id="Icon-Envelope" transform="translate(78.000000, 232.000000)">
	<path id="Fill-3" fill="#134563" d="M-30.1-226.6l-1.9-1.9l-17.6,17.6c-2.2,2.2-5.9,2.2-8.1,0l-17.6-17.5l-1.9,1.9l13.1,13.1
		l-13.1,13.1l1.9,1.9l13.1-13.1l2.6,2.6c1.6,1.6,3.7,2.5,5.9,2.5s4.3-0.9,5.9-2.5l2.6-2.6l13.1,13.1l1.9-1.9l-13.1-13.1L-30.1-226.6
		"/>
	<path id="Fill-4" fill="#134563" d="M-33.8-195h-39.5c-2.3,0-4.2-1.9-4.2-4.2v-28.2c0-2.3,1.9-4.2,4.2-4.2h39.5
		c2.3,0,4.2,1.9,4.2,4.2v28.2C-29.6-196.9-31.5-195-33.8-195L-33.8-195z M-73.4-228.9c-0.8,0-1.4,0.6-1.4,1.4v28.2
		c0,0.8,0.6,1.4,1.4,1.4h39.5c0.8,0,1.4-0.6,1.4-1.4v-28.2c0-0.8-0.6-1.4-1.4-1.4H-73.4L-73.4-228.9z"/>
</g>
</svg>
