<?xml version="1.0" encoding="utf-8"?>
<!-- Generator: Adobe Illustrator 21.0.2, SVG Export Plug-In . SVG Version: 6.00 Build 0)  -->
<svg version="1.1" id="Слой_1" xmlns="http://www.w3.org/2000/svg" xmlns:xlink="http://www.w3.org/1999/xlink" x="0px" y="0px"
	 viewBox="0 0 162 240" enable-background="new 0 0 162 240" xml:space="preserve">
<g>
	<path d="M80.3,0C38.2,0,4,34.2,4,76.3c0,37.6,26.1,87,48,121.8c1.4,2.2,4.4,2.9,6.6,1.5c2.2-1.4,2.9-4.4,1.5-6.6
		C21.7,131.9,13.6,95.9,13.6,76.3c0-36.8,29.9-66.7,66.7-66.7c36.8,0,66.7,29.9,66.7,66.7c0,59.8-69.8,150.9-70.5,151.8
		c-1.6,2.1-1.2,5.1,0.9,6.7c0.9,0.7,1.9,1,2.9,1c1.4,0,2.9-0.6,3.8-1.9c3-3.8,72.5-94.6,72.5-157.7C156.7,34.2,122.4,0,80.3,0
		L80.3,0z M80.3,0"/>
	<path d="M80.3,52c2.7,0,4.8-2.1,4.8-4.8c0-2.6-2.1-4.8-4.8-4.8c-18.7,0-33.9,15.2-33.9,33.9c0,18.7,15.2,33.9,33.9,33.9
		c18.7,0,33.9-15.2,33.9-33.9c0-7.5-2.4-14.6-6.9-20.5c-1.6-2.1-4.6-2.5-6.7-0.9c-2.1,1.6-2.5,4.6-0.9,6.7c3.2,4.3,4.9,9.3,4.9,14.7
		c0,13.4-10.9,24.3-24.3,24.3C66.9,100.7,56,89.8,56,76.3C56,62.9,66.9,52,80.3,52L80.3,52z M80.3,52"/>
</g>
</svg>
