<?xml version="1.0" encoding="utf-8"?>
<!-- Generator: Adobe Illustrator 21.0.2, SVG Export Plug-In . SVG Version: 6.00 Build 0)  -->
<svg version="1.1" id="Слой_1" xmlns="http://www.w3.org/2000/svg" xmlns:xlink="http://www.w3.org/1999/xlink" x="0px" y="0px"
	 viewBox="0 0 390 392" enable-background="new 0 0 390 392" xml:space="preserve">
<g>
	<g>
		<defs>
			<rect id="SVGID_1_" x="5" y="4" width="379" height="380.9"/>
		</defs>
		<clipPath id="SVGID_2_">
			<use xlink:href="#SVGID_1_"  overflow="visible"/>
		</clipPath>
		<path clip-path="url(#SVGID_2_)" d="M304.3,239.7c-7.8-8.1-17.1-12.4-27-12.4c-9.8,0-19.3,4.2-27.4,12.3l-25.3,25.2
			c-2.1-1.1-4.2-2.2-6.2-3.2c-2.9-1.4-5.6-2.8-7.9-4.2c-23.7-15-45.2-34.6-65.8-60c-10-12.6-16.7-23.3-21.6-34.1
			c6.6-6,12.6-12.2,18.6-18.2c2.2-2.2,4.5-4.6,6.7-6.8c16.8-16.8,16.8-38.6,0-55.4L126.5,61c-2.5-2.5-5-5-7.4-7.6
			c-4.8-5-9.8-10.1-15-14.9c-7.8-7.7-17-11.8-26.8-11.8c-9.8,0-19.2,4.1-27.2,11.8l-0.2,0.2L22.7,66.2C12.4,76.4,6.6,88.9,5.3,103.4
			c-1.9,23.4,5,45.1,10.2,59.4c13,35,32.3,67.4,61.2,102.1c35,41.8,77.2,74.9,125.4,98.2c18.4,8.7,43,19,70.4,20.8
			c1.7,0.1,3.4,0.2,5,0.2c18.5,0,34-6.6,46.2-19.8c0.1-0.2,0.2-0.2,0.3-0.4c4.2-5,9-9.6,14-14.5c3.4-3.3,7-6.7,10.4-10.3
			c7.9-8.2,12.1-17.8,12.1-27.7c0-9.9-4.2-19.4-12.3-27.4L304.3,239.7z M332.9,323.9C332.8,323.9,332.8,324,332.9,323.9
			c-3.1,3.4-6.3,6.4-9.8,9.8c-5.2,5-10.5,10.2-15.4,16c-8.1,8.6-17.6,12.7-30.1,12.7c-1.2,0-2.5,0-3.7-0.1
			c-23.8-1.5-45.8-10.8-62.4-18.7c-45.3-21.9-85-53-118.1-92.5c-27.3-32.9-45.5-63.3-57.6-95.9c-7.4-19.9-10.2-35.4-9-50.1
			c0.8-9.4,4.4-17.1,11-23.8l27.3-27.3c3.9-3.7,8.1-5.7,12.2-5.7c5,0,9.1,3,11.7,5.6l0.2,0.2c4.9,4.6,9.5,9.3,14.4,14.3
			c2.5,2.6,5,5.1,7.6,7.8l21.8,21.8c8.5,8.5,8.5,16.3,0,24.8c-2.3,2.3-4.6,4.6-6.9,6.9c-6.7,6.9-13.1,13.3-20.1,19.5
			c-0.2,0.2-0.3,0.2-0.4,0.4c-6.9,6.9-5.6,13.6-4.2,18.2l0.2,0.7c5.7,13.8,13.7,26.7,25.8,42.2l0.1,0.1c22.1,27.2,45.4,48.4,71,64.6
			c3.3,2.1,6.6,3.8,9.8,5.4c2.9,1.4,5.6,2.8,7.9,4.2c0.3,0.2,0.6,0.4,1,0.6c2.7,1.4,5.3,2,7.9,2c6.6,0,10.8-4.2,12.2-5.5l27.4-27.4
			c2.7-2.7,7-6,12.1-6c5,0,9,3.1,11.5,5.8l44.2,44.2C341.1,307,341.1,315.4,332.9,323.9L332.9,323.9z M332.9,323.9"/>
		<path clip-path="url(#SVGID_2_)" d="M209.6,95c21,3.5,40,13.4,55.2,28.6c15.2,15.2,25,34.2,28.6,55.2c0.9,5.3,5.4,9,10.6,9
			c0.6,0,1.2-0.1,1.8-0.2c5.9-1,9.8-6.6,8.9-12.5c-4.3-25.4-16.3-48.5-34.6-66.8c-18.3-18.3-41.4-30.3-66.8-34.6
			c-5.9-1-11.4,3-12.5,8.8C199.8,88.4,203.6,94.1,209.6,95L209.6,95z M209.6,95"/>
		<path clip-path="url(#SVGID_2_)" d="M383.3,172.1c-7.1-41.8-26.8-79.8-57-110c-30.2-30.2-68.2-49.9-110-57c-5.8-1-11.4,3-12.4,8.8
			c-1,5.9,3,11.4,8.9,12.5c37.3,6.3,71.3,24,98.3,51c27,27,44.6,61,51,98.3c0.9,5.3,5.4,9,10.6,9c0.6,0,1.2-0.1,1.8-0.2
			C380.4,183.5,384.4,177.9,383.3,172.1L383.3,172.1z M383.3,172.1"/>
	</g>
</g>
</svg>
