<?xml version="1.0" encoding="UTF-8"?><!DOCTYPE svg PUBLIC "-//W3C//DTD SVG 1.1//EN" "http://www.w3.org/Graphics/SVG/1.1/DTD/svg11.dtd"><svg xmlns="http://www.w3.org/2000/svg"><symbol id="icon-check" viewBox="0 0 18.8 14.1">
    <path d="M6.4 13.4c-.3 0-.5-.1-.7-.3l-5-5c-.4-.4-.4-1 0-1.4s1-.4 1.4 0L6.4 11 16.7.7c.4-.4 1-.4 1.4 0s.4 1 0 1.4l-11 11c-.2.2-.4.3-.7.3z"/>
</symbol><symbol id="icon-facebook" viewBox="0 0 10 19">
    <title>
        facebook
    </title>
    <path d="M9.766.157v2.946H8.014c-.64 0-1.071.134-1.295.402-.223.268-.335.67-.335 1.205v2.11h3.27l-.435 3.303H6.384v8.471H2.97v-8.47H.123V6.82H2.97V4.387c0-1.384.387-2.457 1.161-3.22C4.904.404 5.934.023 7.222.023c1.093 0 1.941.045 2.544.134z" fill-rule="evenodd"/>
</symbol><symbol id="icon-letter" viewBox="0 0 48.8 37.4">
    <g>
        <path d="M47.9 5.4L46 3.5 28.4 21.1c-2.2 2.2-5.9 2.2-8.1 0L2.7 3.6.8 5.5l13.1 13.1L.8 31.7l1.9 1.9 13.1-13.1 2.6 2.6c1.6 1.6 3.7 2.5 5.9 2.5s4.3-.9 5.9-2.5l2.6-2.6 13.1 13.1 1.9-1.9-13.1-13.1L47.9 5.4"/>
        <path d="M44.2 37H4.7C2.4 37 .5 35.1.5 32.8V4.6C.5 2.3 2.4.4 4.7.4h39.5c2.3 0 4.2 1.9 4.2 4.2v28.2c0 2.3-1.9 4.2-4.2 4.2zM4.6 3.1c-.8 0-1.4.6-1.4 1.4v28.2c0 .8.6 1.4 1.4 1.4h39.5c.8 0 1.4-.6 1.4-1.4V4.5c0-.8-.6-1.4-1.4-1.4H4.6z"/>
    </g>
</symbol><symbol id="icon-phone" viewBox="0 0 512 512">
    <path d="M13.5 188.8c5 69.9 178.9 285.9 246 305.7 31.5 9.3 64.7 14 97.3 10 22.6-2.8 50-12.1 71-27.1l-115.4-142c-6.4 5.4-11.2 12.4-13 20.7-2.6 11.7-.3 26.5-10 33.6-7 5.1-16.7 3.2-25 .7-40.7-12.4-144.7-141.7-148.1-184.1-.7-8.6-.5-18.5 6-24.3 9-8 22.9-2.5 34.9-2.6 8.1 0 15.7-3 22.2-7.7L64.2 29.9C46 47.1 31.9 70.9 24.6 91.6c-11 31-13.4 64.5-11.1 97.2z"/>
    <path d="M191.4 79.1C183 56.3 171.5 33.5 151.9 19c-27.6-20.4-55-14.6-77.7 2.5l114.7 141.2c5.2-6.5 9-14.4 10.8-22.5 4.4-20.4-1.1-41.6-8.3-61.1z"/>
    <path d="M347 323.1c-8 0-16.1 1.9-23.4 5.3L438 469.3c20.2-18.4 30.6-43.3 17-73.6-10-22.2-29.8-38.3-50.3-51.4-17.4-11.2-36.9-21.2-57.7-21.2z"/>
    <path d="M324.5 13.3c-.7-.1-1.3-.1-2-.2l-4.1 39.8c.7.1 1.3.1 2 .2 84.9 8.8 146.9 85 138.1 169.9l39.7 4.1c11.1-107-66.7-202.7-173.7-213.8z"/>
    <path d="M316.3 92.8c-.7-.1-1.3-.1-2-.2l-4.1 39.7c.7.1 1.3.1 2 .2 41.1 4.2 71.1 41.1 66.8 82.2l39.7 4.1c6.6-62.9-39.4-119.5-102.4-126z"/>
    <path d="M269.7 203.5c-2 19.2 12 36.4 31.2 38.4s36.4-12 38.4-31.2-12-36.4-31.2-38.4-36.4 12-38.4 31.2z"/>
</symbol></svg>